<?xml version="1.0" encoding="UTF-8" standalone="no"?>
<!DOCTYPE svg PUBLIC "-//W3C//DTD SVG 1.1//EN"
 "http://www.w3.org/Graphics/SVG/1.1/DTD/svg11.dtd">
<!-- Generated by graphviz version 2.38.0 (20140413.2041)
 -->
<!-- Title: %3 Pages: 1 -->
<svg width="384pt" height="44pt"
 viewBox="0.00 0.00 383.90 44.00" xmlns="http://www.w3.org/2000/svg" xmlns:xlink="http://www.w3.org/1999/xlink">
<g id="graph0" class="graph" transform="scale(1 1) rotate(0) translate(4 40)">
<title>%3</title>
<polygon fill="white" stroke="none" points="-4,4 -4,-40 379.895,-40 379.895,4 -4,4"/>
<!-- Root -->
<g id="node1" class="node"><title>Root</title>
<ellipse fill="none" stroke="black" cx="27.9475" cy="-18" rx="27.8951" ry="18"/>
<text text-anchor="middle" x="27.9475" y="-14.3" font-family="Times,serif" font-size="14.00">Root</text>
</g>
<!-- Adj -->
<g id="node2" class="node"><title>Adj</title>
<defs>
<linearGradient id="l_0" gradientUnits="userSpaceOnUse" x1="102.732" y1="-30.7279" x2="155.058" y2="-5.27208" >
<stop offset="0" style="stop-color:lightskyblue;stop-opacity:1.;"/>
<stop offset="1" style="stop-color:azure;stop-opacity:1.;"/>
</linearGradient>
</defs>
<path fill="url(#l_0)" stroke="black" d="M153.895,-36C153.895,-36 103.895,-36 103.895,-36 97.895,-36 91.895,-30 91.895,-24 91.895,-24 91.895,-12 91.895,-12 91.895,-6 97.895,-0 103.895,-0 103.895,-0 153.895,-0 153.895,-0 159.895,-0 165.895,-6 165.895,-12 165.895,-12 165.895,-24 165.895,-24 165.895,-30 159.895,-36 153.895,-36"/>
<text text-anchor="middle" x="128.895" y="-14.3" font-family="Times,serif" font-size="14.00">Adjectives</text>
</g>
<!-- Root&#45;&gt;Adj -->
<g id="edge1" class="edge"><title>Root&#45;&gt;Adj</title>
<path fill="none" stroke="black" d="M55.9854,-18C63.8817,-18 72.7454,-18 81.4815,-18"/>
<polygon fill="black" stroke="black" points="81.6125,-21.5001 91.6125,-18 81.6125,-14.5001 81.6125,-21.5001"/>
</g>
<!-- Pl -->
<g id="node3" class="node"><title>Pl</title>
<defs>
<linearGradient id="l_1" gradientUnits="userSpaceOnUse" x1="209.95" y1="-30.7279" x2="248.84" y2="-5.27208" >
<stop offset="0" style="stop-color:lightskyblue;stop-opacity:1.;"/>
<stop offset="1" style="stop-color:azure;stop-opacity:1.;"/>
</linearGradient>
</defs>
<path fill="url(#l_1)" stroke="black" d="M244.895,-36C244.895,-36 213.895,-36 213.895,-36 207.895,-36 201.895,-30 201.895,-24 201.895,-24 201.895,-12 201.895,-12 201.895,-6 207.895,-0 213.895,-0 213.895,-0 244.895,-0 244.895,-0 250.895,-0 256.895,-6 256.895,-12 256.895,-12 256.895,-24 256.895,-24 256.895,-30 250.895,-36 244.895,-36"/>
<text text-anchor="middle" x="229.395" y="-14.3" font-family="Times,serif" font-size="14.00">Plural?</text>
</g>
<!-- Adj&#45;&gt;Pl -->
<g id="edge2" class="edge"><title>Adj&#45;&gt;Pl</title>
<path fill="none" stroke="black" d="M166.013,-18C174.352,-18 183.233,-18 191.6,-18"/>
<polygon fill="black" stroke="black" points="191.845,-21.5001 201.845,-18 191.845,-14.5001 191.845,-21.5001"/>
</g>
<!-- Acc -->
<g id="node4" class="node"><title>Acc</title>
<defs>
<linearGradient id="l_2" gradientUnits="userSpaceOnUse" x1="305.05" y1="-30.7279" x2="363.74" y2="-5.27208" >
<stop offset="0" style="stop-color:lightskyblue;stop-opacity:1.;"/>
<stop offset="1" style="stop-color:azure;stop-opacity:1.;"/>
</linearGradient>
</defs>
<path fill="url(#l_2)" stroke="black" d="M363.895,-36C363.895,-36 304.895,-36 304.895,-36 298.895,-36 292.895,-30 292.895,-24 292.895,-24 292.895,-12 292.895,-12 292.895,-6 298.895,-0 304.895,-0 304.895,-0 363.895,-0 363.895,-0 369.895,-0 375.895,-6 375.895,-12 375.895,-12 375.895,-24 375.895,-24 375.895,-30 369.895,-36 363.895,-36"/>
<text text-anchor="middle" x="334.395" y="-14.3" font-family="Times,serif" font-size="14.00">Accusative?</text>
</g>
<!-- Pl&#45;&gt;Acc -->
<g id="edge3" class="edge"><title>Pl&#45;&gt;Acc</title>
<path fill="none" stroke="black" d="M256.92,-18C264.717,-18 273.522,-18 282.311,-18"/>
<polygon fill="black" stroke="black" points="282.56,-21.5001 292.56,-18 282.56,-14.5001 282.56,-21.5001"/>
</g>
</g>
</svg>
