<?xml version="1.0" encoding="UTF-8" standalone="no"?>
<!DOCTYPE svg PUBLIC "-//W3C//DTD SVG 1.1//EN"
 "http://www.w3.org/Graphics/SVG/1.1/DTD/svg11.dtd">
<!-- Generated by graphviz version 2.38.0 (20140413.2041)
 -->
<!-- Title: %3 Pages: 1 -->
<svg width="260pt" height="207pt"
 viewBox="0.00 0.00 259.90 207.00" xmlns="http://www.w3.org/2000/svg" xmlns:xlink="http://www.w3.org/1999/xlink">
<g id="graph0" class="graph" transform="scale(1 1) rotate(0) translate(4 203)">
<title>%3</title>
<polygon fill="white" stroke="none" points="-4,4 -4,-203 255.895,-203 255.895,4 -4,4"/>
<g id="clust1" class="cluster"><title>cluster_infl</title>
<polygon fill="none" stroke="lightskyblue" points="173.895,-8 173.895,-191 243.895,-191 243.895,-8 173.895,-8"/>
<text text-anchor="middle" x="208.895" y="-175.8" font-family="Times,serif" font-size="14.00">Infl</text>
</g>
<!-- Root -->
<g id="node1" class="node"><title>Root</title>
<ellipse fill="none" stroke="black" cx="27.9475" cy="-88" rx="27.8951" ry="18"/>
<text text-anchor="middle" x="27.9475" y="-84.3" font-family="Times,serif" font-size="14.00">Root</text>
</g>
<!-- V -->
<g id="node2" class="node"><title>V</title>
<defs>
<linearGradient id="l_0" gradientUnits="userSpaceOnUse" x1="99.8032" y1="-100.728" x2="137.987" y2="-75.2721" >
<stop offset="0" style="stop-color:lightskyblue;stop-opacity:1.;"/>
<stop offset="1" style="stop-color:azure;stop-opacity:1.;"/>
</linearGradient>
</defs>
<path fill="url(#l_0)" stroke="black" d="M133.895,-106C133.895,-106 103.895,-106 103.895,-106 97.895,-106 91.895,-100 91.895,-94 91.895,-94 91.895,-82 91.895,-82 91.895,-76 97.895,-70 103.895,-70 103.895,-70 133.895,-70 133.895,-70 139.895,-70 145.895,-76 145.895,-82 145.895,-82 145.895,-94 145.895,-94 145.895,-100 139.895,-106 133.895,-106"/>
<text text-anchor="middle" x="118.895" y="-84.3" font-family="Times,serif" font-size="14.00">Verbs</text>
</g>
<!-- Root&#45;&gt;V -->
<g id="edge1" class="edge"><title>Root&#45;&gt;V</title>
<path fill="none" stroke="black" d="M56.118,-88C64.1814,-88 73.1438,-88 81.6848,-88"/>
<polygon fill="black" stroke="black" points="81.8051,-91.5001 91.8051,-88 81.8051,-84.5001 81.8051,-91.5001"/>
</g>
<!-- s -->
<g id="node4" class="node"><title>s</title>
<defs>
<linearGradient id="l_1" gradientUnits="userSpaceOnUse" x1="189.803" y1="-100.728" x2="227.987" y2="-75.2721" >
<stop offset="0" style="stop-color:lightskyblue;stop-opacity:1.;"/>
<stop offset="1" style="stop-color:azure;stop-opacity:1.;"/>
</linearGradient>
</defs>
<path fill="url(#l_1)" stroke="black" d="M223.895,-106C223.895,-106 193.895,-106 193.895,-106 187.895,-106 181.895,-100 181.895,-94 181.895,-94 181.895,-82 181.895,-82 181.895,-76 187.895,-70 193.895,-70 193.895,-70 223.895,-70 223.895,-70 229.895,-70 235.895,-76 235.895,-82 235.895,-82 235.895,-94 235.895,-94 235.895,-100 229.895,-106 223.895,-106"/>
<text text-anchor="middle" x="208.895" y="-84.3" font-family="Times,serif" font-size="14.00">&#45;s</text>
</g>
<!-- V&#45;&gt;s -->
<g id="edge2" class="edge"><title>V&#45;&gt;s</title>
<path fill="none" stroke="black" d="M146.298,-88C154.288,-88 163.206,-88 171.719,-88"/>
<polygon fill="black" stroke="black" points="163.895,-91.5005 173.895,-88 163.895,-84.5005 163.895,-91.5005"/>
</g>
<!-- ed -->
<g id="node3" class="node"><title>ed</title>
<defs>
<linearGradient id="l_2" gradientUnits="userSpaceOnUse" x1="189.803" y1="-154.728" x2="227.987" y2="-129.272" >
<stop offset="0" style="stop-color:lightskyblue;stop-opacity:1.;"/>
<stop offset="1" style="stop-color:azure;stop-opacity:1.;"/>
</linearGradient>
</defs>
<path fill="url(#l_2)" stroke="black" d="M223.895,-160C223.895,-160 193.895,-160 193.895,-160 187.895,-160 181.895,-154 181.895,-148 181.895,-148 181.895,-136 181.895,-136 181.895,-130 187.895,-124 193.895,-124 193.895,-124 223.895,-124 223.895,-124 229.895,-124 235.895,-130 235.895,-136 235.895,-136 235.895,-148 235.895,-148 235.895,-154 229.895,-160 223.895,-160"/>
<text text-anchor="middle" x="208.895" y="-138.3" font-family="Times,serif" font-size="14.00">&#45;ed</text>
</g>
<!-- ing -->
<g id="node5" class="node"><title>ing</title>
<defs>
<linearGradient id="l_3" gradientUnits="userSpaceOnUse" x1="189.803" y1="-46.7279" x2="227.987" y2="-21.2721" >
<stop offset="0" style="stop-color:lightskyblue;stop-opacity:1.;"/>
<stop offset="1" style="stop-color:azure;stop-opacity:1.;"/>
</linearGradient>
</defs>
<path fill="url(#l_3)" stroke="black" d="M223.895,-52C223.895,-52 193.895,-52 193.895,-52 187.895,-52 181.895,-46 181.895,-40 181.895,-40 181.895,-28 181.895,-28 181.895,-22 187.895,-16 193.895,-16 193.895,-16 223.895,-16 223.895,-16 229.895,-16 235.895,-22 235.895,-28 235.895,-28 235.895,-40 235.895,-40 235.895,-46 229.895,-52 223.895,-52"/>
<text text-anchor="middle" x="208.895" y="-30.3" font-family="Times,serif" font-size="14.00">&#45;ing</text>
</g>
</g>
</svg>
