<?xml version="1.0" encoding="UTF-8" standalone="no"?>
<!DOCTYPE svg PUBLIC "-//W3C//DTD SVG 1.1//EN"
 "http://www.w3.org/Graphics/SVG/1.1/DTD/svg11.dtd">
<!-- Generated by graphviz version 2.38.0 (20140413.2041)
 -->
<!-- Title: %3 Pages: 1 -->
<svg width="405pt" height="207pt"
 viewBox="0.00 0.00 404.90 207.00" xmlns="http://www.w3.org/2000/svg" xmlns:xlink="http://www.w3.org/1999/xlink">
<g id="graph0" class="graph" transform="scale(1 1) rotate(0) translate(4 203)">
<title>%3</title>
<polygon fill="white" stroke="none" points="-4,4 -4,-203 400.895,-203 400.895,4 -4,4"/>
<g id="clust1" class="cluster"><title>cluster_pos</title>
<polygon fill="none" stroke="lightskyblue" points="83.895,-8 83.895,-191 173.895,-191 173.895,-8 83.895,-8"/>
<text text-anchor="middle" x="128.895" y="-175.8" font-family="Times,serif" font-size="14.00">(POS)</text>
</g>
<g id="clust2" class="cluster"><title>cluster_number</title>
<polygon fill="none" stroke="lightskyblue" points="193.895,-62 193.895,-191 271.895,-191 271.895,-62 193.895,-62"/>
<text text-anchor="middle" x="232.895" y="-175.8" font-family="Times,serif" font-size="14.00">Number</text>
</g>
<g id="clust3" class="cluster"><title>cluster_case</title>
<polygon fill="none" stroke="lightskyblue" points="291.895,-8 291.895,-191 388.895,-191 388.895,-8 291.895,-8"/>
<text text-anchor="middle" x="340.395" y="-175.8" font-family="Times,serif" font-size="14.00">Case</text>
</g>
<!-- Root -->
<g id="node1" class="node"><title>Root</title>
<ellipse fill="none" stroke="black" cx="27.9475" cy="-88" rx="27.8951" ry="18"/>
<text text-anchor="middle" x="27.9475" y="-84.3" font-family="Times,serif" font-size="14.00">Root</text>
</g>
<!-- Noun -->
<g id="node3" class="node"><title>Noun</title>
<defs>
<linearGradient id="l_0" gradientUnits="userSpaceOnUse" x1="109.803" y1="-100.728" x2="147.987" y2="-75.2721" >
<stop offset="0" style="stop-color:lightskyblue;stop-opacity:1.;"/>
<stop offset="1" style="stop-color:azure;stop-opacity:1.;"/>
</linearGradient>
</defs>
<path fill="url(#l_0)" stroke="black" d="M143.895,-106C143.895,-106 113.895,-106 113.895,-106 107.895,-106 101.895,-100 101.895,-94 101.895,-94 101.895,-82 101.895,-82 101.895,-76 107.895,-70 113.895,-70 113.895,-70 143.895,-70 143.895,-70 149.895,-70 155.895,-76 155.895,-82 155.895,-82 155.895,-94 155.895,-94 155.895,-100 149.895,-106 143.895,-106"/>
<text text-anchor="middle" x="128.895" y="-84.3" font-family="Times,serif" font-size="14.00">Nouns</text>
</g>
<!-- Root&#45;&gt;Noun -->
<g id="edge1" class="edge"><title>Root&#45;&gt;Noun</title>
<path fill="none" stroke="black" d="M55.9854,-88C61.5317,-88 67.5554,-88 73.6768,-88"/>
<polygon fill="black" stroke="black" points="74.0041,-91.5001 84.004,-88 74.004,-84.5001 74.0041,-91.5001"/>
</g>
<!-- Adj -->
<g id="node2" class="node"><title>Adj</title>
<defs>
<linearGradient id="l_1" gradientUnits="userSpaceOnUse" x1="102.732" y1="-154.728" x2="155.058" y2="-129.272" >
<stop offset="0" style="stop-color:lightskyblue;stop-opacity:1.;"/>
<stop offset="1" style="stop-color:azure;stop-opacity:1.;"/>
</linearGradient>
</defs>
<path fill="url(#l_1)" stroke="black" d="M153.895,-160C153.895,-160 103.895,-160 103.895,-160 97.895,-160 91.895,-154 91.895,-148 91.895,-148 91.895,-136 91.895,-136 91.895,-130 97.895,-124 103.895,-124 103.895,-124 153.895,-124 153.895,-124 159.895,-124 165.895,-130 165.895,-136 165.895,-136 165.895,-148 165.895,-148 165.895,-154 159.895,-160 153.895,-160"/>
<text text-anchor="middle" x="128.895" y="-138.3" font-family="Times,serif" font-size="14.00">Adjectives</text>
</g>
<!-- Pl -->
<g id="node6" class="node"><title>Pl</title>
<defs>
<linearGradient id="l_2" gradientUnits="userSpaceOnUse" x1="213.803" y1="-100.728" x2="251.987" y2="-75.2721" >
<stop offset="0" style="stop-color:lightskyblue;stop-opacity:1.;"/>
<stop offset="1" style="stop-color:azure;stop-opacity:1.;"/>
</linearGradient>
</defs>
<path fill="url(#l_2)" stroke="black" d="M247.895,-106C247.895,-106 217.895,-106 217.895,-106 211.895,-106 205.895,-100 205.895,-94 205.895,-94 205.895,-82 205.895,-82 205.895,-76 211.895,-70 217.895,-70 217.895,-70 247.895,-70 247.895,-70 253.895,-70 259.895,-76 259.895,-82 259.895,-82 259.895,-94 259.895,-94 259.895,-100 253.895,-106 247.895,-106"/>
<text text-anchor="middle" x="232.895" y="-84.3" font-family="Times,serif" font-size="14.00">Plural</text>
</g>
<!-- Noun&#45;&gt;Pl -->
<g id="edge2" class="edge"><title>Noun&#45;&gt;Pl</title>
<path fill="none" stroke="black" d="M173.69,-88C177.169,-88 180.694,-88 184.197,-88"/>
<polygon fill="black" stroke="black" points="184.238,-91.5001 194.238,-88 184.238,-84.5001 184.238,-91.5001"/>
</g>
<!-- POSetc -->
<g id="node4" class="node"><title>POSetc</title>
<ellipse fill="none" stroke="black" stroke-width="0" cx="128.895" cy="-34" rx="27" ry="18"/>
<text text-anchor="middle" x="128.895" y="-30.3" font-family="Times,serif" font-size="14.00">...</text>
</g>
<!-- Sg -->
<g id="node5" class="node"><title>Sg</title>
<defs>
<linearGradient id="l_3" gradientUnits="userSpaceOnUse" x1="210.975" y1="-154.728" x2="254.815" y2="-129.272" >
<stop offset="0" style="stop-color:lightskyblue;stop-opacity:1.;"/>
<stop offset="1" style="stop-color:azure;stop-opacity:1.;"/>
</linearGradient>
</defs>
<path fill="url(#l_3)" stroke="black" d="M251.895,-160C251.895,-160 213.895,-160 213.895,-160 207.895,-160 201.895,-154 201.895,-148 201.895,-148 201.895,-136 201.895,-136 201.895,-130 207.895,-124 213.895,-124 213.895,-124 251.895,-124 251.895,-124 257.895,-124 263.895,-130 263.895,-136 263.895,-136 263.895,-148 263.895,-148 263.895,-154 257.895,-160 251.895,-160"/>
<text text-anchor="middle" x="232.895" y="-138.3" font-family="Times,serif" font-size="14.00">Singular</text>
</g>
<!-- Acc -->
<g id="node8" class="node"><title>Acc</title>
<defs>
<linearGradient id="l_4" gradientUnits="userSpaceOnUse" x1="313.171" y1="-100.728" x2="367.619" y2="-75.2721" >
<stop offset="0" style="stop-color:lightskyblue;stop-opacity:1.;"/>
<stop offset="1" style="stop-color:azure;stop-opacity:1.;"/>
</linearGradient>
</defs>
<path fill="url(#l_4)" stroke="black" d="M366.895,-106C366.895,-106 313.895,-106 313.895,-106 307.895,-106 301.895,-100 301.895,-94 301.895,-94 301.895,-82 301.895,-82 301.895,-76 307.895,-70 313.895,-70 313.895,-70 366.895,-70 366.895,-70 372.895,-70 378.895,-76 378.895,-82 378.895,-82 378.895,-94 378.895,-94 378.895,-100 372.895,-106 366.895,-106"/>
<text text-anchor="middle" x="340.395" y="-84.3" font-family="Times,serif" font-size="14.00">Accusative</text>
</g>
<!-- Pl&#45;&gt;Acc -->
<g id="edge3" class="edge"><title>Pl&#45;&gt;Acc</title>
<path fill="none" stroke="black" d="M271.747,-88C278.13,-88 284.83,-88 291.429,-88"/>
<polygon fill="black" stroke="black" points="281.896,-91.5021 291.895,-88 281.894,-84.5021 281.896,-91.5021"/>
</g>
<!-- Nom -->
<g id="node7" class="node"><title>Nom</title>
<defs>
<linearGradient id="l_5" gradientUnits="userSpaceOnUse" x1="311.757" y1="-154.728" x2="369.033" y2="-129.272" >
<stop offset="0" style="stop-color:lightskyblue;stop-opacity:1.;"/>
<stop offset="1" style="stop-color:azure;stop-opacity:1.;"/>
</linearGradient>
</defs>
<path fill="url(#l_5)" stroke="black" d="M368.895,-160C368.895,-160 311.895,-160 311.895,-160 305.895,-160 299.895,-154 299.895,-148 299.895,-148 299.895,-136 299.895,-136 299.895,-130 305.895,-124 311.895,-124 311.895,-124 368.895,-124 368.895,-124 374.895,-124 380.895,-130 380.895,-136 380.895,-136 380.895,-148 380.895,-148 380.895,-154 374.895,-160 368.895,-160"/>
<text text-anchor="middle" x="340.395" y="-138.3" font-family="Times,serif" font-size="14.00">Nominative</text>
</g>
<!-- Casetc -->
<g id="node9" class="node"><title>Casetc</title>
<ellipse fill="none" stroke="black" stroke-width="0" cx="340.395" cy="-34" rx="27" ry="18"/>
<text text-anchor="middle" x="340.395" y="-30.3" font-family="Times,serif" font-size="14.00">...</text>
</g>
</g>
</svg>
